<?xml version="1.0" encoding="UTF-8" standalone="no"?>
<!-- Created with Inkscape (http://www.inkscape.org/) -->

<svg
   xmlns:dc="http://purl.org/dc/elements/1.1/"
   xmlns:cc="http://creativecommons.org/ns#"
   xmlns:rdf="http://www.w3.org/1999/02/22-rdf-syntax-ns#"
   xmlns:svg="http://www.w3.org/2000/svg"
   xmlns="http://www.w3.org/2000/svg"
   xmlns:sodipodi="http://sodipodi.sourceforge.net/DTD/sodipodi-0.dtd"
   xmlns:inkscape="http://www.inkscape.org/namespaces/inkscape"
   width="500"
   height="500"
   id="svg2"
   version="1.1"
   inkscape:version="0.47pre4 r22446"
   sodipodi:docname="petersen-graph-factors.svg">
  <defs
     id="defs4" />
  <sodipodi:namedview
     id="base"
     pagecolor="#ffffff"
     bordercolor="#666666"
     borderopacity="1.0"
     inkscape:pageopacity="0.0"
     inkscape:pageshadow="2"
     inkscape:zoom="1"
     inkscape:cx="232.30404"
     inkscape:cy="238.81619"
     inkscape:document-units="px"
     inkscape:current-layer="layer1"
     showgrid="false"
     inkscape:snap-global="true"
     inkscape:object-paths="false"
     inkscape:object-nodes="true"
     inkscape:window-width="1280"
     inkscape:window-height="973"
     inkscape:window-x="0"
     inkscape:window-y="0"
     inkscape:window-maximized="1">
    <inkscape:grid
       type="xygrid"
       id="grid2816"
       empspacing="5"
       visible="true"
       enabled="true"
       snapvisiblegridlinesonly="true" />
  </sodipodi:namedview>
  <metadata
     id="metadata7">
    <rdf:RDF>
      <cc:Work
         rdf:about="">
        <dc:format>image/svg+xml</dc:format>
        <dc:type
           rdf:resource="http://purl.org/dc/dcmitype/StillImage" />
        <dc:title />
      </cc:Work>
    </rdf:RDF>
  </metadata>
  <g
     inkscape:label="Layer 1"
     inkscape:groupmode="layer"
     id="layer1"
     transform="translate(0,-552.36218)">
    <path
       id="path2842"
       style="fill:none;stroke:#ff0000;stroke-width:4;stroke-linecap:butt;stroke-linejoin:miter;stroke-miterlimit:4;stroke-opacity:1;stroke-dasharray:none"
       d="m 478.25357,748.19811 -95.10566,30.9017 m 7.92055,237.42649 -58.77853,-80.90174 m -223.3584,80.90174 58.77853,-80.90174 M 21.74644,748.1981 l 95.10565,30.9017 m 133.14792,-196.73762 -1e-5,100" />
    <path
       style="color:#000000;fill:none;stroke:#0000ff;stroke-width:4;stroke-linecap:butt;stroke-linejoin:miter;stroke-miterlimit:4;stroke-opacity:1;stroke-dasharray:none;stroke-dashoffset:0;marker:none;visibility:visible;display:inline;overflow:visible;enable-background:accumulate"
       d="m 250.00001,582.36218 228.25356,165.83593 -87.18511,268.32819 -282.13693,0 L 21.74644,748.1981 250.00001,582.36218 z"
       id="path2820" />
    <path
       style="fill:none;stroke:#0000ff;stroke-width:4;stroke-linecap:butt;stroke-linejoin:round;stroke-miterlimit:4;stroke-opacity:1;stroke-dasharray:none"
       d="m 250,682.36218 82.28993,253.26238 -215.43784,-156.52476 266.29582,1e-5 L 167.71006,935.62456 250,682.36218 z"
       id="path2844" />
    <path
       sodipodi:type="arc"
       style="color:#000000;fill:#ffffff;fill-opacity:1;fill-rule:nonzero;stroke:#000000;stroke-width:4;stroke-linecap:butt;stroke-linejoin:round;stroke-miterlimit:4;stroke-opacity:1;stroke-dasharray:none;stroke-dashoffset:0;marker:none;visibility:visible;display:inline;overflow:visible;enable-background:accumulate"
       id="path3634"
       sodipodi:cx="280"
       sodipodi:cy="232.36218"
       sodipodi:rx="10"
       sodipodi:ry="10"
       d="m 290,232.36218 c 0,5.52285 -4.47715,10 -10,10 -5.52285,0 -10,-4.47715 -10,-10 0,-5.52284 4.47715,-10 10,-10 5.52285,0 10,4.47716 10,10 z"
       transform="translate(-29.99999,350)" />
    <path
       transform="translate(198.25357,515.83593)"
       d="m 290,232.36218 c 0,5.52285 -4.47715,10 -10,10 -5.52285,0 -10,-4.47715 -10,-10 0,-5.52284 4.47715,-10 10,-10 5.52285,0 10,4.47716 10,10 z"
       sodipodi:ry="10"
       sodipodi:rx="10"
       sodipodi:cy="232.36218"
       sodipodi:cx="280"
       id="path3636"
       style="color:#000000;fill:#ffffff;fill-opacity:1;fill-rule:nonzero;stroke:#000000;stroke-width:4;stroke-linecap:butt;stroke-linejoin:round;stroke-miterlimit:4;stroke-opacity:1;stroke-dasharray:none;stroke-dashoffset:0;marker:none;visibility:visible;display:inline;overflow:visible;enable-background:accumulate"
       sodipodi:type="arc" />
    <path
       sodipodi:type="arc"
       style="color:#000000;fill:#ffffff;fill-opacity:1;fill-rule:nonzero;stroke:#000000;stroke-width:4;stroke-linecap:butt;stroke-linejoin:round;stroke-miterlimit:4;stroke-opacity:1;stroke-dasharray:none;stroke-dashoffset:0;marker:none;visibility:visible;display:inline;overflow:visible;enable-background:accumulate"
       id="path3638"
       sodipodi:cx="280"
       sodipodi:cy="232.36218"
       sodipodi:rx="10"
       sodipodi:ry="10"
       d="m 290,232.36218 c 0,5.52285 -4.47715,10 -10,10 -5.52285,0 -10,-4.47715 -10,-10 0,-5.52284 4.47715,-10 10,-10 5.52285,0 10,4.47716 10,10 z"
       transform="translate(111.06846,784.16409)" />
    <path
       transform="translate(-171.06847,784.16408)"
       d="m 290,232.36218 c 0,5.52285 -4.47715,10 -10,10 -5.52285,0 -10,-4.47715 -10,-10 0,-5.52284 4.47715,-10 10,-10 5.52285,0 10,4.47716 10,10 z"
       sodipodi:ry="10"
       sodipodi:rx="10"
       sodipodi:cy="232.36218"
       sodipodi:cx="280"
       id="path3640"
       style="color:#000000;fill:#ffffff;fill-opacity:1;fill-rule:nonzero;stroke:#000000;stroke-width:4;stroke-linecap:butt;stroke-linejoin:round;stroke-miterlimit:4;stroke-opacity:1;stroke-dasharray:none;stroke-dashoffset:0;marker:none;visibility:visible;display:inline;overflow:visible;enable-background:accumulate"
       sodipodi:type="arc" />
    <path
       sodipodi:type="arc"
       style="color:#000000;fill:#ffffff;fill-opacity:1;fill-rule:nonzero;stroke:#000000;stroke-width:4;stroke-linecap:butt;stroke-linejoin:round;stroke-miterlimit:4;stroke-opacity:1;stroke-dasharray:none;stroke-dashoffset:0;marker:none;visibility:visible;display:inline;overflow:visible;enable-background:accumulate"
       id="path3642"
       sodipodi:cx="280"
       sodipodi:cy="232.36218"
       sodipodi:rx="10"
       sodipodi:ry="10"
       d="m 290,232.36218 c 0,5.52285 -4.47715,10 -10,10 -5.52285,0 -10,-4.47715 -10,-10 0,-5.52284 4.47715,-10 10,-10 5.52285,0 10,4.47716 10,10 z"
       transform="translate(-258.25356,515.83592)" />
    <path
       transform="translate(-30,450)"
       d="m 290,232.36218 c 0,5.52285 -4.47715,10 -10,10 -5.52285,0 -10,-4.47715 -10,-10 0,-5.52284 4.47715,-10 10,-10 5.52285,0 10,4.47716 10,10 z"
       sodipodi:ry="10"
       sodipodi:rx="10"
       sodipodi:cy="232.36218"
       sodipodi:cx="280"
       id="path3644"
       style="color:#000000;fill:#ffffff;fill-opacity:1;fill-rule:nonzero;stroke:#000000;stroke-width:4;stroke-linecap:butt;stroke-linejoin:round;stroke-miterlimit:4;stroke-opacity:1;stroke-dasharray:none;stroke-dashoffset:0;marker:none;visibility:visible;display:inline;overflow:visible;enable-background:accumulate"
       sodipodi:type="arc" />
    <path
       sodipodi:type="arc"
       style="color:#000000;fill:#ffffff;fill-opacity:1;fill-rule:nonzero;stroke:#000000;stroke-width:4;stroke-linecap:butt;stroke-linejoin:round;stroke-miterlimit:4;stroke-opacity:1;stroke-dasharray:none;stroke-dashoffset:0;marker:none;visibility:visible;display:inline;overflow:visible;enable-background:accumulate"
       id="path3646"
       sodipodi:cx="280"
       sodipodi:cy="232.36218"
       sodipodi:rx="10"
       sodipodi:ry="10"
       d="m 290,232.36218 c 0,5.52285 -4.47715,10 -10,10 -5.52285,0 -10,-4.47715 -10,-10 0,-5.52284 4.47715,-10 10,-10 5.52285,0 10,4.47716 10,10 z"
       transform="translate(-163.14791,546.73762)" />
    <path
       transform="translate(103.14791,546.73763)"
       d="m 290,232.36218 c 0,5.52285 -4.47715,10 -10,10 -5.52285,0 -10,-4.47715 -10,-10 0,-5.52284 4.47715,-10 10,-10 5.52285,0 10,4.47716 10,10 z"
       sodipodi:ry="10"
       sodipodi:rx="10"
       sodipodi:cy="232.36218"
       sodipodi:cx="280"
       id="path3648"
       style="color:#000000;fill:#ffffff;fill-opacity:1;fill-rule:nonzero;stroke:#000000;stroke-width:4;stroke-linecap:butt;stroke-linejoin:round;stroke-miterlimit:4;stroke-opacity:1;stroke-dasharray:none;stroke-dashoffset:0;marker:none;visibility:visible;display:inline;overflow:visible;enable-background:accumulate"
       sodipodi:type="arc" />
    <path
       sodipodi:type="arc"
       style="color:#000000;fill:#ffffff;fill-opacity:1;fill-rule:nonzero;stroke:#000000;stroke-width:4;stroke-linecap:butt;stroke-linejoin:round;stroke-miterlimit:4;stroke-opacity:1;stroke-dasharray:none;stroke-dashoffset:0;marker:none;visibility:visible;display:inline;overflow:visible;enable-background:accumulate"
       id="path3650"
       sodipodi:cx="280"
       sodipodi:cy="232.36218"
       sodipodi:rx="10"
       sodipodi:ry="10"
       d="m 290,232.36218 c 0,5.52285 -4.47715,10 -10,10 -5.52285,0 -10,-4.47715 -10,-10 0,-5.52284 4.47715,-10 10,-10 5.52285,0 10,4.47716 10,10 z"
       transform="translate(52.28993,703.26238)" />
    <path
       transform="translate(-112.28994,703.26238)"
       d="m 290,232.36218 c 0,5.52285 -4.47715,10 -10,10 -5.52285,0 -10,-4.47715 -10,-10 0,-5.52284 4.47715,-10 10,-10 5.52285,0 10,4.47716 10,10 z"
       sodipodi:ry="10"
       sodipodi:rx="10"
       sodipodi:cy="232.36218"
       sodipodi:cx="280"
       id="path3652"
       style="color:#000000;fill:#ffffff;fill-opacity:1;fill-rule:nonzero;stroke:#000000;stroke-width:4;stroke-linecap:butt;stroke-linejoin:round;stroke-miterlimit:4;stroke-opacity:1;stroke-dasharray:none;stroke-dashoffset:0;marker:none;visibility:visible;display:inline;overflow:visible;enable-background:accumulate"
       sodipodi:type="arc" />
  </g>
</svg>
